<mxfile host="app.diagrams.net" modified="2024-05-10T17:45:21.783Z" agent="Mozilla/5.0 (Windows NT 10.0; Win64; x64) AppleWebKit/537.36 (KHTML, like Gecko) Chrome/123.0.0.0 Safari/537.36" etag="uOFA4Cx5fMQueujBv3iR" version="24.3.1" type="github">
  <diagram name="PÃ¡gina-1" id="bLOlsDvP_HnhLGGCleES">
    <mxGraphModel dx="880" dy="434" grid="1" gridSize="10" guides="1" tooltips="1" connect="1" arrows="1" fold="1" page="1" pageScale="1" pageWidth="827" pageHeight="1169" math="0" shadow="0">
      <root>
        <mxCell id="0" />
        <mxCell id="1" parent="0" />
        <mxCell id="MiWnlo5Wa8Gxh9rMK0n2-1" value="Usuario&lt;div&gt;&lt;br&gt;&lt;/div&gt;" style="shape=umlActor;verticalLabelPosition=bottom;verticalAlign=top;html=1;outlineConnect=0;direction=east;" vertex="1" parent="1">
          <mxGeometry x="120" y="290" width="30" height="70" as="geometry" />
        </mxCell>
        <mxCell id="MiWnlo5Wa8Gxh9rMK0n2-6" value="" style="swimlane;startSize=0;" vertex="1" parent="1">
          <mxGeometry x="260" y="150" width="400" height="360" as="geometry">
            <mxRectangle x="260" y="150" width="50" height="40" as="alternateBounds" />
          </mxGeometry>
        </mxCell>
        <mxCell id="MiWnlo5Wa8Gxh9rMK0n2-22" style="edgeStyle=orthogonalEdgeStyle;rounded=0;orthogonalLoop=1;jettySize=auto;html=1;exitX=1;exitY=0;exitDx=0;exitDy=0;" edge="1" parent="MiWnlo5Wa8Gxh9rMK0n2-6" source="MiWnlo5Wa8Gxh9rMK0n2-7" target="MiWnlo5Wa8Gxh9rMK0n2-20">
          <mxGeometry relative="1" as="geometry">
            <Array as="points" />
          </mxGeometry>
        </mxCell>
        <mxCell id="MiWnlo5Wa8Gxh9rMK0n2-23" value="Accede a las funcionalidad" style="edgeLabel;html=1;align=center;verticalAlign=middle;resizable=0;points=[];" vertex="1" connectable="0" parent="MiWnlo5Wa8Gxh9rMK0n2-22">
          <mxGeometry x="-0.3538" y="-4" relative="1" as="geometry">
            <mxPoint as="offset" />
          </mxGeometry>
        </mxCell>
        <mxCell id="MiWnlo5Wa8Gxh9rMK0n2-7" value="Login" style="ellipse;whiteSpace=wrap;html=1;" vertex="1" parent="MiWnlo5Wa8Gxh9rMK0n2-6">
          <mxGeometry x="55" y="50" width="120" height="80" as="geometry" />
        </mxCell>
        <mxCell id="MiWnlo5Wa8Gxh9rMK0n2-9" value="Registro" style="ellipse;whiteSpace=wrap;html=1;" vertex="1" parent="MiWnlo5Wa8Gxh9rMK0n2-6">
          <mxGeometry x="55" y="260" width="120" height="80" as="geometry" />
        </mxCell>
        <mxCell id="MiWnlo5Wa8Gxh9rMK0n2-12" value="&amp;lt;&amp;lt;Extends&amp;gt;&amp;gt;" style="endArrow=open;endSize=12;dashed=1;html=1;rounded=0;exitX=0.5;exitY=0;exitDx=0;exitDy=0;" edge="1" parent="MiWnlo5Wa8Gxh9rMK0n2-6" source="MiWnlo5Wa8Gxh9rMK0n2-9" target="MiWnlo5Wa8Gxh9rMK0n2-7">
          <mxGeometry width="160" relative="1" as="geometry">
            <mxPoint x="-80" y="180" as="sourcePoint" />
            <mxPoint x="80" y="180" as="targetPoint" />
          </mxGeometry>
        </mxCell>
        <mxCell id="MiWnlo5Wa8Gxh9rMK0n2-20" value="Funcionalidades" style="ellipse;whiteSpace=wrap;html=1;align=center;" vertex="1" parent="MiWnlo5Wa8Gxh9rMK0n2-6">
          <mxGeometry x="250" y="150" width="120" height="60" as="geometry" />
        </mxCell>
        <mxCell id="MiWnlo5Wa8Gxh9rMK0n2-8" value="Systema&amp;nbsp;" style="text;html=1;align=center;verticalAlign=middle;resizable=0;points=[];autosize=1;strokeColor=none;fillColor=none;" vertex="1" parent="1">
          <mxGeometry x="285" y="158" width="70" height="30" as="geometry" />
        </mxCell>
        <mxCell id="MiWnlo5Wa8Gxh9rMK0n2-14" value="Ingresa Credenciales" style="html=1;verticalAlign=bottom;endArrow=block;curved=0;rounded=0;entryX=0;entryY=0.5;entryDx=0;entryDy=0;exitX=1;exitY=0.3333333333333333;exitDx=0;exitDy=0;exitPerimeter=0;" edge="1" parent="1" source="MiWnlo5Wa8Gxh9rMK0n2-1" target="MiWnlo5Wa8Gxh9rMK0n2-7">
          <mxGeometry width="80" relative="1" as="geometry">
            <mxPoint x="250" y="330" as="sourcePoint" />
            <mxPoint x="330" y="330" as="targetPoint" />
          </mxGeometry>
        </mxCell>
        <mxCell id="MiWnlo5Wa8Gxh9rMK0n2-15" value="" style="html=1;verticalAlign=bottom;endArrow=block;curved=0;rounded=0;" edge="1" parent="1" source="MiWnlo5Wa8Gxh9rMK0n2-1" target="MiWnlo5Wa8Gxh9rMK0n2-9">
          <mxGeometry width="80" relative="1" as="geometry">
            <mxPoint x="160" y="323" as="sourcePoint" />
            <mxPoint x="325" y="250" as="targetPoint" />
          </mxGeometry>
        </mxCell>
        <mxCell id="MiWnlo5Wa8Gxh9rMK0n2-19" value="Se registra" style="edgeLabel;html=1;align=center;verticalAlign=middle;resizable=0;points=[];" vertex="1" connectable="0" parent="MiWnlo5Wa8Gxh9rMK0n2-15">
          <mxGeometry x="-0.1019" relative="1" as="geometry">
            <mxPoint as="offset" />
          </mxGeometry>
        </mxCell>
      </root>
    </mxGraphModel>
  </diagram>
</mxfile>
